<svg width="152" height="64" viewBox="0 0 152 64" fill="none" xmlns="http://www.w3.org/2000/svg">
<path d="M8.04974 41.7251H4.15692V43.0925H5.45289L1.98877 52.691H5.64014V51.1837H4.34417L5.1252 48.8909H8.93179L10.1883 52.691H12.7704V51.1837H11.5311L8.05221 41.7251H8.04974ZM5.59333 47.4769L7.04451 43.0925H7.07654L8.46613 47.4769H5.59579H5.59333Z" fill="white"/>
<path d="M28.4109 47.5063C28.4109 46.8607 28.3493 46.3476 28.231 45.9745C28.1152 45.6259 27.8886 45.3436 27.5436 45.1202C27.1913 44.9091 26.7626 44.8011 26.2575 44.8011C25.4543 44.8011 24.6339 45.1349 23.8159 45.7953V41.7227H20.8125V43.1833H22.1701V52.691H25.1192V51.2132H23.8159V47.2265C24.6659 46.6054 25.3681 46.2936 25.9077 46.2936C26.1195 46.2936 26.2969 46.3476 26.4448 46.4556C26.5926 46.5735 26.6862 46.7208 26.7256 46.8901C26.7577 47.0694 26.7725 47.4425 26.7725 48.0096V52.6885H29.6896V51.2107H28.4109V47.5039V47.5063Z" fill="white"/>
<path d="M44.7776 47.8252C44.7776 47.1648 44.7456 46.7131 44.6766 46.4578C44.6076 46.1706 44.4647 45.8981 44.2553 45.6502C44.0459 45.4022 43.7256 45.1985 43.3042 45.0364C42.8829 44.8818 42.3754 44.8032 41.7915 44.8032C40.2146 44.8032 39.0911 45.4341 38.421 46.7008L39.9978 47.1059C40.3329 46.4995 40.8626 46.1976 41.5746 46.1976C41.996 46.1976 42.331 46.2761 42.5897 46.4382C42.846 46.6002 43.0037 46.7794 43.0726 46.9733C43.1416 47.1452 43.1737 47.4324 43.1737 47.8276V48.4266C42.5897 48.0461 41.9245 47.8595 41.1829 47.8595C40.4413 47.8595 39.7465 48.0927 39.1946 48.5592C38.6402 49.033 38.3594 49.6319 38.3594 50.3537C38.3594 51.0754 38.6255 51.667 39.1478 52.1261C39.6701 52.5851 40.2861 52.8184 40.9957 52.8184C41.9073 52.8184 42.6809 52.5066 43.3116 51.8781V52.6932H46.0588V51.2153H44.7801V47.8252H44.7776ZM43.1712 50.6556C42.5626 51.2301 41.9073 51.5173 41.2051 51.5173C40.8059 51.5173 40.5029 51.4093 40.2762 51.1834C40.0495 50.9576 39.9337 50.6777 39.9337 50.3512C39.9337 49.9854 40.0668 49.6982 40.3329 49.4724C40.5916 49.2465 40.9094 49.1385 41.3012 49.1385C41.9491 49.1385 42.5725 49.3717 43.1737 49.8455V50.6532L43.1712 50.6556Z" fill="white"/>
<path d="M54.6997 46.48H55.8774V51.7334C55.8774 52.8921 55.8454 53.5844 55.7912 53.825C55.7296 54.0435 55.6039 54.2055 55.4241 54.3135C55.2442 54.4215 54.9633 54.4755 54.5815 54.4755C54.4336 54.4755 54.1675 54.4534 53.7856 54.4142V55.9067C54.1059 55.9681 54.4262 56 54.7441 56C55.5645 56 56.1953 55.8282 56.624 55.4943C57.0527 55.1604 57.3015 54.7333 57.3877 54.2129C57.474 53.6458 57.5208 52.735 57.5208 51.5002V45.0022H54.6973V46.48H54.6997Z" fill="white"/>
<path d="M56.6436 41.5679C56.3775 41.5679 56.1508 41.6612 55.9636 41.8477C55.7689 42.0417 55.6753 42.2675 55.6753 42.54C55.6753 42.788 55.7689 43.0138 55.9562 43.2077C56.136 43.4017 56.3701 43.5023 56.6436 43.5023C56.9171 43.5023 57.1437 43.409 57.3384 43.2151C57.533 43.0212 57.6192 42.8027 57.6192 42.5376C57.6192 42.2577 57.5256 42.0245 57.3384 41.8379C57.1437 41.6587 56.9097 41.5654 56.6436 41.5654V41.5679Z" fill="white"/>
<path d="M68.507 41.8477C68.3197 42.0417 68.2261 42.2675 68.2261 42.54C68.2261 42.8125 68.3197 43.0285 68.507 43.2175C68.6942 43.4115 68.9283 43.5048 69.2017 43.5048C69.4752 43.5048 69.6945 43.4115 69.8891 43.2175C70.0838 43.031 70.1774 42.8051 70.1774 42.54C70.1774 42.2601 70.0838 42.0269 69.8891 41.8404C69.6945 41.6612 69.4604 41.5679 69.2017 41.5679C68.9283 41.5679 68.6942 41.6612 68.507 41.8477Z" fill="white"/>
<path d="M70.0838 51.2155V45.0046H67.2603V46.48H68.438V52.6908H71.2319V51.2155H70.0838Z" fill="white"/>
<path d="M6.39672 34.0586H6.34498C5.41016 34.0586 4.65234 34.8137 4.65234 35.7451V35.7819C4.65234 36.7133 5.41016 37.4684 6.34498 37.4684H6.39672C7.33154 37.4684 8.08936 36.7133 8.08936 35.7819V35.7451C8.08936 34.8137 7.33154 34.0586 6.39672 34.0586Z" fill="white"/>
<path d="M11.5533 34.0586H11.5164C10.5816 34.0586 9.82373 34.8137 9.82373 35.7451V35.7819C9.82373 36.7133 10.5816 37.4684 11.5164 37.4684H11.5533C12.4881 37.4684 13.246 36.7133 13.246 35.7819V35.7451C13.246 34.8137 12.4881 34.0586 11.5533 34.0586Z" fill="white"/>
<path d="M20.8616 31.2303C21.4603 31.8587 22.2019 32.2834 23.0839 32.4872H39.2983L39.5989 32.362L39.6309 32.33V29.2345L39.4732 29.0774C39.2367 29.0774 39.0322 28.9841 38.8573 28.8098C38.6848 28.6379 38.6059 28.4489 38.6059 28.2132V20.505C38.6059 19.2947 38.1969 18.2907 37.3765 17.4732C36.5413 16.641 35.5163 16.2163 34.3017 16.2163H31.7147C30.5172 16.2163 29.5071 16.641 28.6866 17.4732C27.8514 18.2907 27.4252 19.2972 27.4252 20.505V24.7224H30.8474V20.505C30.8474 20.2693 30.941 20.0484 31.116 19.8765C31.2884 19.7022 31.4781 19.6261 31.7147 19.6261H34.3017C34.553 19.6261 34.7599 19.7047 34.9324 19.8765C35.1049 20.0484 35.1837 20.2546 35.1837 20.505V28.2132C35.2305 28.6698 35.3734 28.9669 35.5779 29.0774H23.9044C23.6679 29.0774 23.4634 28.9841 23.2884 28.8098C23.116 28.6379 23.0371 28.4489 23.0371 28.2132V20.505C23.0371 19.2947 22.6281 18.2907 21.8077 17.4732C20.9724 16.641 19.9943 16.2163 18.8905 16.2163H17.8335C16.6361 16.2163 15.626 16.641 14.8055 17.4732C13.9703 18.2907 13.5441 19.2972 13.5441 20.505V28.1961C13.5441 28.4317 13.4652 28.6355 13.2927 28.8098C13.1203 28.9816 12.9133 29.0774 12.6768 29.0774L5.20158 29.0626C4.96506 29.0626 4.76056 28.9693 4.58563 28.795C4.41316 28.6232 4.33432 28.4342 4.33432 28.1985V16.4692H0.914551V28.1985C0.914551 29.4235 1.32354 30.43 2.16124 31.2155C2.75995 31.844 3.50155 32.2687 4.3836 32.4724L12.6793 32.4872C13.8767 32.4872 14.8868 32.0625 15.7073 31.2303C16.5425 30.4128 16.9687 29.4063 16.9687 28.1985V20.5074C16.9687 20.2717 17.0624 20.0508 17.2373 19.879C17.4098 19.7047 17.5995 19.6286 17.836 19.6286H18.893C19.0359 19.6286 19.1936 19.7071 19.366 19.879C19.5385 20.0508 19.6173 20.257 19.6173 20.5074V28.2157C19.6173 29.4407 20.0263 30.4472 20.864 31.2327L20.8616 31.2303Z" fill="white"/>
<path d="M32.7644 34.0117H32.7127C31.7778 34.0117 31.02 34.7668 31.02 35.6982V35.735C31.02 36.6665 31.7778 37.4215 32.7127 37.4215H32.7644C33.6992 37.4215 34.457 36.6665 34.457 35.735V35.6982C34.457 34.7668 33.6992 34.0117 32.7644 34.0117Z" fill="white"/>
<path d="M62.7514 28.81C62.5789 28.6382 62.5001 28.4492 62.5001 28.2135V20.5052C62.5001 19.295 62.0911 18.2909 61.2706 17.4735C60.4354 16.6413 59.4104 16.2166 58.1958 16.2166H55.6088C54.4114 16.2166 53.4012 16.6413 52.5808 17.4735C51.7455 18.2909 51.3193 19.2974 51.3193 20.5052V24.7227H54.7415V20.5052C54.7415 20.2695 54.8351 20.0486 55.0101 19.8768C55.1825 19.7025 55.3723 19.6264 55.6088 19.6264H58.1958C58.4471 19.6264 58.6541 19.7049 58.8265 19.8768C58.999 20.0486 59.0803 20.2548 59.0803 20.5052V28.2135C59.1271 28.6701 59.27 28.9671 59.4745 29.0776H49.2226V29.0629H47.0791C46.8425 29.0629 46.638 28.9843 46.4631 28.8125C46.2906 28.6406 46.2093 28.4344 46.2093 28.1988V10.2463H42.7871V28.1988C42.7871 28.7487 42.8807 29.2814 43.0704 29.7699C43.2602 30.2731 43.5287 30.7125 43.8737 31.0881C44.189 31.4662 44.598 31.7804 45.1031 32.0161C45.5761 32.2517 46.096 32.4089 46.6479 32.4874H63.1899L63.4905 32.3622L63.5225 32.3303V29.2347L63.3649 29.0776C63.1283 29.0776 62.9238 28.9843 62.7489 28.81H62.7514Z" fill="white"/>
<path d="M70.66 12.922H67.8143C67.5088 12.922 67.2279 12.8066 66.984 12.5832C66.7499 12.3623 66.6317 12.0824 66.6317 11.7559V10.8231C66.6317 10.4966 66.7499 10.2167 66.984 9.98354C67.2304 9.7626 67.5113 9.64476 67.8143 9.64476H67.8611C68.1666 9.64476 68.4475 9.76014 68.6914 9.98354C68.9132 10.229 69.0314 10.5089 69.0314 10.8231V10.9041H70.6822V10.8231C70.6822 10.0302 70.4013 9.36491 69.8519 8.8273C69.3123 8.27986 68.6471 8 67.8611 8H67.8143C67.0185 8 66.3385 8.27986 65.789 8.8273C65.2396 9.37473 64.9809 10.0277 64.9809 10.8231V11.7559C64.9809 11.8836 65.04 12.2813 65.146 12.9343H64.126V14.579H70.66V12.922Z" fill="white"/>
<path d="M70.6058 32.4873V16.3735H64.126V19.7981H67.186V32.4873H70.6058Z" fill="white"/>
<path d="M149.997 0H80.3203V62.9152H149.997V0Z" fill="#FFDE17"/>
<path d="M145.642 53.1526H139.11V59.6611H145.642V53.1526Z" fill="black"/>
<path d="M121.301 33.627V40.1621H139.218V43.3845H118.022V33.627H83.5864V49.9196H101.849V59.6609H108.274V43.3845H90.0133V40.1621H111.596V49.9196H145.642V33.627H121.301Z" fill="black"/>
<path d="M83.5864 53.1526V59.6611H89.976H96.6508V53.1526H89.976H83.5864Z" fill="black"/>
<path d="M135.844 56.4067H111.893V59.661H135.844V56.4067Z" fill="black"/>
<path d="M145.642 4.33887H139.11V30.3728H145.642V4.33887Z" fill="black"/>
<path d="M83.6364 30.3728H135.844V14.146H93.2807V20.6533H129.429V23.8654H90.0016V4.33887H83.5864V30.3728H83.6364Z" fill="black"/>
<path d="M135.844 4.33887H93.3843V7.59311H135.844V4.33887Z" fill="black"/>
<path d="M135.844 64H79.2314V0H90.2369V1.37647H80.5992V62.6235H135.844V64Z" fill="black"/>
<path d="M151.085 64H139.833V62.6235H149.692V1.37647H93.3843V0H151.085V64Z" fill="black"/>
</svg>
